<svg width="512" height="512" viewBox="0 0 512 512" xmlns="http://www.w3.org/2000/svg"><defs><linearGradient id="gff7a45f0530f" x1="0" y1="0" x2="0" y2="1"><stop offset="0" stop-color="#ff7a45"></stop><stop offset="1" stop-color="#f0530f"></stop></linearGradient></defs><rect width="512" height="512" rx="116" fill="url(#gff7a45f0530f)"></rect><g transform="translate(0 -25)"><g><line x1="256" y1="356" x2="256" y2="452" stroke="#fff8f2" stroke-width="14" stroke-linecap="round"></line><path d="M256 404 C 256 360, 340 372, 356 332" fill="none" stroke="#fff8f2" stroke-width="14" stroke-linecap="round"></path><circle cx="256" cy="452" r="26" fill="#f0530f" stroke="#fff8f2" stroke-width="14"></circle><circle cx="256" cy="356" r="26" fill="#ffd9c2" stroke="#fff8f2" stroke-width="14"></circle><circle cx="356" cy="324" r="24" fill="#f0530f" stroke="#fff8f2" stroke-width="14"></circle></g><g><path d="M148 92 H364 A56 56 0 0 1 420 148 V244 A56 56 0 0 1 364 300 H288 L256 352 L232 300 H148 A56 56 0 0 1 92 244 V148 A56 56 0 0 1 148 92 Z" fill="#fff8f2" stroke="none" stroke-width="0" stroke-linejoin="round"></path><g transform="translate(171 111) scale(7.083333333333333)" fill="none" stroke="#f0530f" stroke-width="2.5" stroke-linecap="round" stroke-linejoin="round"><path d="M15 7h3a5 5 0 0 1 0 10h-3"></path><path d="M9 17H6A5 5 0 0 1 6 7h3"></path><line x1="8" y1="12" x2="16" y2="12"></line></g></g></g></svg>